<?xml version="1.0" standalone="no"?>
<!DOCTYPE svg PUBLIC "-//W3C//DTD SVG 20010904//EN"
 "http://www.w3.org/TR/2001/REC-SVG-20010904/DTD/svg10.dtd">
<svg version="1.0" xmlns="http://www.w3.org/2000/svg"
 width="261.000000pt" height="261.000000pt" viewBox="0 0 261.000000 261.000000"
 preserveAspectRatio="xMidYMid meet">
<metadata>
Created by potrace 1.11, written by Peter Selinger 2001-2013
</metadata>
<g transform="translate(0.000000,261.000000) scale(0.100000,-0.100000)"
fill="#000000" stroke="none">
<path d="M850 2570 l0 -40 -47 -2 c-27 0 -66 -2 -88 -2 l-40 -1 1 -42 c2 -43
1 -43 -35 -43 -41 -1 -114 -10 -120 -16 -2 -2 -4 -17 -3 -33 1 -33 -9 -39 -55
-35 -18 1 -34 -1 -34 -4 -1 -4 -2 -25 -3 -47 -2 -40 -2 -40 -42 -39 l-40 2 1
-42 0 -41 -46 1 -45 1 0 -46 1 -46 -40 0 c-40 0 -41 -1 -41 -35 0 -19 -1 -56
-2 -81 l-2 -45 -42 0 -42 0 -2 -59 c-1 -33 -3 -72 -3 -87 -1 -26 -4 -28 -41
-28 l-40 0 0 -370 0 -370 40 0 c25 0 40 -5 41 -12 3 -57 7 -161 8 -195 l1 -43
40 0 c43 0 43 0 42 -66 0 -28 2 -31 28 -29 15 1 33 0 38 -4 5 -3 12 -36 16
-74 3 -37 7 -71 10 -75 3 -5 21 -7 40 -6 20 2 37 -1 37 -6 1 -6 3 -23 4 -40 1
-16 3 -34 4 -39 0 -5 18 -8 39 -7 l37 1 -1 -40 -2 -40 47 0 46 0 0 -43 c0 -41
1 -42 35 -43 127 -6 129 -6 125 -49 -2 -22 2 -30 14 -31 9 -1 41 -2 71 -4 30
-2 63 -3 73 -4 13 -1 17 -10 17 -40 0 -22 5 -41 13 -43 16 -6 709 -6 765 0 41
4 42 5 42 43 l0 39 53 2 c123 3 126 4 121 48 -4 29 -3 30 44 31 76 3 113 7
120 14 4 4 7 23 7 43 0 37 0 37 41 36 l41 0 -2 37 c-3 42 3 47 56 44 l35 -2 0
46 -1 46 41 0 c39 0 41 1 38 31 -3 46 8 57 49 52 l35 -4 6 56 c3 30 4 69 3 86
-3 30 -2 31 35 29 38 -2 40 -1 40 35 0 11 0 24 -1 29 -1 7 -270 8 -458 2 -19
-1 -23 -7 -23 -36 l0 -35 -112 -1 c-322 -4 -478 -3 -483 2 -3 4 -7 113 -10
244 -2 130 -6 239 -9 242 -2 3 -21 5 -40 5 l-36 0 -1 77 c0 42 -2 135 -4 206
-2 72 -4 151 -4 178 -1 47 -1 47 -36 47 l-35 0 0 49 0 50 165 -1 c90 -1 168
-4 172 -7 5 -3 9 -76 10 -161 1 -85 2 -176 2 -202 l1 -48 35 0 35 0 1 -97 c0
-128 7 -314 11 -318 4 -4 93 -7 171 -6 l57 1 0 35 0 35 48 1 c26 0 128 2 227
4 99 1 210 3 248 4 l67 1 0 40 0 40 51 0 51 0 -5 288 c-3 158 -6 288 -6 290
-1 1 -19 2 -41 2 -25 0 -40 5 -41 13 0 6 -2 41 -4 77 -2 36 -3 70 -4 76 -1 6
-17 10 -36 9 -34 -2 -35 -1 -37 39 -1 23 -3 50 -4 61 -1 11 -2 29 -3 40 -1 17
-8 20 -43 20 l-43 0 1 43 c0 23 -5 43 -10 43 -6 1 -24 2 -41 3 -28 1 -30 4
-30 41 0 39 -1 40 -35 41 -19 1 -40 2 -46 3 -6 0 -10 19 -9 44 3 43 2 43 -29
42 -47 -3 -56 4 -56 44 0 36 -2 37 -32 37 -18 0 -56 1 -85 2 l-51 2 2 43 2 42
-85 1 -86 1 -3 41 -3 42 -410 0 -409 0 0 -40z"/>
</g>
</svg>
